<svg width="7" height="12" viewBox="0 0 7 12" fill="none" xmlns="http://www.w3.org/2000/svg">
<path d="M3.348 10.132C2.684 10.092 2.132 9.94 1.692 9.676C1.252 9.404 0.888 9.068 0.6 8.668L1.332 8.068C1.62 8.428 1.924 8.708 2.244 8.908C2.564 9.108 2.936 9.228 3.36 9.268V6.136L3.084 6.088C2.668 6.016 2.32 5.908 2.04 5.764C1.76 5.612 1.536 5.436 1.368 5.236C1.2 5.028 1.08 4.8 1.008 4.552C0.936 4.296 0.9 4.032 0.9 3.76C0.9 3.08 1.116 2.548 1.548 2.164C1.988 1.772 2.588 1.548 3.348 1.492V0.267999H4.092V1.492C4.644 1.532 5.12 1.668 5.52 1.9C5.928 2.124 6.284 2.44 6.588 2.848L5.832 3.388C5.616 3.1 5.368 2.868 5.088 2.692C4.816 2.516 4.48 2.408 4.08 2.368V5.308L4.44 5.368C4.848 5.44 5.192 5.548 5.472 5.692C5.752 5.836 5.976 6.012 6.144 6.22C6.32 6.42 6.444 6.648 6.516 6.904C6.588 7.16 6.624 7.428 6.624 7.708C6.624 8.412 6.404 8.976 5.964 9.4C5.532 9.824 4.908 10.068 4.092 10.132V11.356H3.348V10.132ZM1.872 3.76C1.872 4.152 1.984 4.46 2.208 4.684C2.44 4.908 2.824 5.076 3.36 5.188V2.356C2.88 2.404 2.512 2.548 2.256 2.788C2 3.02 1.872 3.344 1.872 3.76ZM5.652 7.72C5.652 7.288 5.528 6.96 5.28 6.736C5.04 6.512 4.64 6.352 4.08 6.256V9.256C4.584 9.2 4.972 9.04 5.244 8.776C5.516 8.512 5.652 8.16 5.652 7.72Z" fill="black"/>
</svg>
