<svg width="115" height="15" viewBox="0 0 115 15" fill="none" xmlns="http://www.w3.org/2000/svg">
<g clip-path="url(#clip0_1_119)">
<path fill-rule="evenodd" clip-rule="evenodd" d="M0.0469971 0.786V15.214H3.35V9.544H8.56V6.757H3.287V3.573H9.457V0.786H0.0469971ZM84.708 15.214H87.948V0.786H84.708V15.214ZM93.941 0.786L99.465 9.901V0.786H102.559V15.214H99.531L93.821 6.098V15.214H90.726V0.786H93.941ZM104.892 0.786V15.214H114.55V12.427H108.132V9.18H113.425V6.6H108.132V3.573H114.322V0.786H104.892ZM16.792 3.287C18.892 3.287 19.931 5.132 19.931 8C19.931 10.868 18.891 12.713 16.793 12.713C14.695 12.713 13.655 10.868 13.655 8C13.655 5.132 14.694 3.287 16.792 3.287ZM10.313 8C10.313 12.09 12.228 15.5 16.793 15.5C21.36 15.5 23.275 12.09 23.275 8C23.275 3.91 21.36 0.5 16.793 0.5C12.226 0.5 10.313 3.91 10.313 8ZM42.235 3.573H42.939C45.914 3.573 47.219 4.697 47.219 8C47.219 11.303 45.914 12.427 42.939 12.427H42.235V3.573ZM38.995 15.213H42.58C47.486 15.213 50.5 13.128 50.5 8C50.5 2.872 47.486 0.786 42.58 0.786H38.996V15.214L38.995 15.213ZM67.544 0.787L69.918 10.485L72.705 0.786H75.215L77.896 10.484L80.186 0.786H83.283L79.407 15.214H76.639L73.813 6.178L71.029 15.214H68.155L64.385 0.786L67.544 0.787ZM31.114 3.288C33.213 3.288 34.252 5.133 34.252 8.001C34.252 10.869 33.212 12.714 31.114 12.714C29.016 12.714 27.976 10.868 27.976 8C27.976 5.132 29.016 3.287 31.113 3.287L31.114 3.288ZM24.632 8C24.632 12.09 26.548 15.5 31.113 15.5C35.679 15.5 37.594 12.09 37.594 8C37.594 3.91 35.68 0.5 31.114 0.5C26.548 0.5 24.632 3.91 24.632 8ZM57.154 14.639C58.416 14.639 59.366 14.053 59.774 13.644C58.8463 12.8375 57.9522 11.9931 57.094 11.113C56.708 10.697 55.758 9.635 55.424 9.146C54.786 9.584 54.244 10.333 54.244 11.521C54.244 13.377 55.55 14.639 57.154 14.639ZM56.641 15.5C53.754 15.5 52.774 13.51 52.774 12.219C52.774 10.482 54.095 9.227 55.119 8.671C54.533 7.869 54.385 7.261 54.377 6.592C54.37 5.419 55.491 3.86 57.777 3.86C58.519 3.86 59.172 4.009 59.573 4.202C59.789 4.298 59.796 4.402 59.796 4.58C59.796 5.048 59.707 6.162 59.662 6.384C59.625 6.607 59.573 6.637 59.499 6.637C59.417 6.637 59.403 6.577 59.403 6.355C59.403 5.969 59.306 5.486 58.958 5.1C58.646 4.751 58.133 4.44 57.391 4.44C56.634 4.44 55.654 4.93 55.654 6.258C55.654 7.535 56.694 8.611 58.059 10.111C58.564 10.675 60.39 12.352 60.769 12.679C61.125 12.189 61.503 11.209 61.503 10.304C61.503 10.081 61.444 9.799 61.221 9.598C61.028 9.413 60.717 9.368 60.494 9.368C60.404 9.368 60.316 9.338 60.316 9.257C60.316 9.161 60.434 9.131 60.553 9.131C60.91 9.131 61.503 9.146 62.335 9.235C62.587 9.265 62.721 9.368 62.721 9.532C62.721 10.704 62.008 12.145 61.258 13.042C62.246 13.867 62.906 14.268 63.315 14.505C63.79 14.787 64.577 15.055 64.992 15.055C65.126 15.055 65.2 15.069 65.2 15.173C65.2 15.248 65.081 15.292 64.851 15.292H63.552C62.157 15.292 61.712 15.159 60.256 14.022C59.841 14.416 58.757 15.5 56.641 15.5Z" fill="#555555"/>
</g>
<defs>
<clipPath id="clip0_1_119">
<rect width="115" height="15" fill="white"/>
</clipPath>
</defs>
</svg>
