<svg width="47" height="20" viewBox="0 0 47 20" fill="none" xmlns="http://www.w3.org/2000/svg">
<g clip-path="url(#clip0_1_126)">
<path d="M11.097 8.49L11.887 8.079V1.811H11.287L9.81799 3.768H9.65999L9.73999 1.589H16.134L16.229 3.769H16.055L14.602 1.81H13.987V8.062L14.777 8.488V8.694H11.113V8.488H11.097V8.49ZM16.939 8.205V1.274L16.339 1.037V0.895L18.581 0.5H18.818V3.784L18.866 3.721C19.4045 3.26522 20.0865 3.01383 20.792 3.011C21.771 3.011 22.213 3.563 22.213 4.589V8.221L22.734 8.489V8.695H19.813V8.489L20.35 8.205V4.59C20.35 4.022 20.097 3.801 19.623 3.801C19.3441 3.7954 19.0716 3.88459 18.85 4.054V8.22L19.37 8.504V8.694H16.45V8.504L16.94 8.204L16.939 8.205ZM24.581 6.089C24.645 7.226 25.15 8.111 26.381 8.111C26.966 8.111 27.376 7.842 27.771 7.637V7.874C27.5082 8.18652 27.179 8.43655 26.8075 8.6059C26.4359 8.77524 26.0313 8.85966 25.623 8.853C23.729 8.853 22.781 7.811 22.781 5.995C22.781 4.211 23.824 3.105 25.529 3.105C27.139 3.105 27.976 3.895 27.976 6.011V6.074L24.581 6.089ZM24.55 5.821L26.208 5.711C26.208 4.289 25.971 3.342 25.481 3.342C24.961 3.342 24.55 4.447 24.55 5.805V5.821ZM0.549988 11.474C0.549988 8.458 2.55499 7.368 4.78099 7.368C5.72899 7.368 6.61299 7.526 7.11799 7.732L7.16599 9.847H6.94499L5.63399 7.795C5.37282 7.69345 5.09263 7.6501 4.81299 7.668C3.62899 7.668 3.02899 9.042 3.04499 11.284C3.05999 13.968 3.51799 15.184 4.62299 15.184C4.84399 15.19 5.06399 15.153 5.27099 15.074V12.2L4.56099 11.79V11.537H8.03399V11.805L7.32399 12.2V15.042C6.47714 15.3406 5.58493 15.4902 4.68699 15.484C2.15999 15.484 0.549988 14.3 0.549988 11.474ZM7.98699 10.053V9.895L10.339 9.485L10.592 9.5V14.079C10.592 14.647 10.86 14.805 11.302 14.805C11.4464 14.8087 11.5898 14.7794 11.7212 14.7193C11.8525 14.6592 11.9684 14.5698 12.06 14.458V10.353L11.429 10.068V9.88L13.749 9.485L13.971 9.517V14.775L14.602 15.027V15.201L12.297 15.485L12.077 15.469V14.775H12.013C11.539 15.2242 10.9129 15.4778 10.26 15.485C9.13999 15.485 8.60199 14.822 8.60199 13.827V10.354L7.98699 10.053ZM22.907 9.468L23.097 9.484V11.19H23.16C23.413 9.942 23.95 9.484 24.629 9.484C24.7259 9.4813 24.8224 9.4976 24.913 9.532V11.268C24.7574 11.2334 24.5983 11.2176 24.439 11.221C24.0044 11.2108 23.5731 11.2972 23.176 11.474V14.821L23.713 15.121V15.326H20.666V15.121L21.218 14.821V10.242L20.587 10.052V9.895L22.907 9.468ZM28.766 9.611V7.826L28.134 7.589V7.447L30.502 7.021L30.708 7.053V14.758L31.371 14.995V15.168L29.034 15.484L28.86 15.468V14.837H28.797C28.5986 15.0469 28.3585 15.2129 28.092 15.3243C27.8256 15.4358 27.5387 15.4902 27.25 15.484C25.987 15.484 25.055 14.521 25.055 12.532C25.055 10.447 26.145 9.421 27.771 9.421C28.112 9.411 28.452 9.475 28.766 9.611ZM28.766 9.958C28.6793 9.884 28.5788 9.82781 28.4704 9.79264C28.3619 9.75746 28.2476 9.74399 28.134 9.753C27.502 9.768 27.108 10.732 27.108 12.421C27.108 13.937 27.392 14.79 28.213 14.758C28.416 14.76 28.613 14.688 28.766 14.553V9.958ZM33.944 9.484H34.15V14.853L34.687 15.137V15.327H31.655V15.121L32.192 14.821V10.337L31.56 10.068V9.895L33.944 9.484ZM34.166 8.032C34.1639 8.16602 34.1352 8.29829 34.0815 8.4211C34.0278 8.54391 33.9502 8.65481 33.8533 8.74732C33.7563 8.83984 33.6418 8.91213 33.5166 8.95997C33.3914 9.00782 33.258 9.03026 33.124 9.026C32.8601 9.026 32.607 8.92117 32.4204 8.73457C32.2338 8.54797 32.129 8.29489 32.129 8.031C32.129 7.76711 32.2338 7.51403 32.4204 7.32743C32.607 7.14083 32.8601 7.036 33.124 7.036C33.3937 7.03168 33.6543 7.13378 33.8494 7.32019C34.0444 7.5066 34.1581 7.76233 34.166 8.032ZM41.476 14.837V10.274L40.844 10.053V9.832L43.166 9.389L43.402 9.421V10.1H43.466C44.0152 9.62703 44.7142 9.36412 45.439 9.358C46.449 9.358 46.908 9.832 46.908 10.905V14.821L47.444 15.121V15.326H44.413V15.121L44.966 14.821V11.031C44.966 10.431 44.713 10.195 44.224 10.195C43.9379 10.1923 43.6594 10.2868 43.434 10.463V14.821L43.955 15.121V15.326H40.94V15.121L41.476 14.837ZM38.113 11.995V11.221C38.113 10.068 37.876 9.705 37.166 9.705C37.0818 9.69927 36.9972 9.69927 36.913 9.705L35.65 11.442H35.476V9.863C36.162 9.62421 36.8817 9.49627 37.608 9.484C39.155 9.484 40.055 9.911 40.055 11.221V14.931L40.608 15.09V15.232C40.2559 15.4093 39.8651 15.4959 39.471 15.484C38.697 15.484 38.334 15.232 38.161 14.821H38.113C37.797 15.263 37.323 15.5 36.597 15.5C35.681 15.5 35.05 14.932 35.05 13.937C35.05 12.99 35.65 12.453 36.866 12.232L38.113 11.995ZM38.113 14.553V12.247L37.734 12.279C37.118 12.326 36.913 12.705 36.913 13.574C36.913 14.505 37.213 14.742 37.639 14.742C37.7286 14.7476 37.8182 14.7319 37.9005 14.6963C37.9829 14.6606 38.0557 14.6061 38.113 14.537V14.553ZM17.871 11.963V11.221C17.871 10.068 17.618 9.689 16.908 9.689C16.828 9.695 16.749 9.705 16.671 9.721L15.391 11.411H15.234V9.83C15.9158 9.59832 16.6299 9.47581 17.35 9.467C18.897 9.467 19.797 9.894 19.797 11.204V14.914L20.35 15.073V15.215C19.9979 15.3923 19.6071 15.4789 19.213 15.467C18.439 15.467 18.076 15.215 17.903 14.804H17.855C17.539 15.246 17.065 15.484 16.355 15.484C15.424 15.484 14.808 14.914 14.808 13.92C14.808 12.973 15.392 12.436 16.608 12.215L17.871 11.962V11.963ZM17.871 14.537V12.247L17.476 12.279C16.876 12.326 16.656 12.705 16.656 13.574C16.656 14.505 16.971 14.742 17.381 14.742C17.4706 14.7476 17.5602 14.7319 17.6425 14.6963C17.7249 14.6606 17.7977 14.6061 17.855 14.537" fill="#555555"/>
</g>
<defs>
<clipPath id="clip0_1_126">
<rect width="47" height="20" fill="white"/>
</clipPath>
</defs>
</svg>
