<svg width="20" height="20" viewBox="0 0 20 20" fill="none" xmlns="http://www.w3.org/2000/svg">
<path d="M14.272 4.768C14.0174 4.768 13.7732 4.86914 13.5932 5.04918C13.4131 5.22921 13.312 5.47339 13.312 5.728C13.312 5.98261 13.4131 6.22679 13.5932 6.40682C13.7732 6.58686 14.0174 6.688 14.272 6.688C14.5266 6.688 14.7708 6.58686 14.9508 6.40682C15.1309 6.22679 15.232 5.98261 15.232 5.728C15.232 5.47339 15.1309 5.22921 14.9508 5.04918C14.7708 4.86914 14.5266 4.768 14.272 4.768ZM17.952 6.704C17.9364 6.04024 17.8121 5.38353 17.584 4.76C17.3806 4.22651 17.064 3.74342 16.656 3.344C16.2599 2.93394 15.7756 2.61934 15.24 2.424C14.6181 2.18893 13.9607 2.06177 13.296 2.048C12.448 2 12.176 2 10 2C7.824 2 7.552 2 6.704 2.048C6.03932 2.06177 5.38187 2.18893 4.76 2.424C4.22534 2.62132 3.74155 2.93565 3.344 3.344C2.93394 3.74014 2.61934 4.22435 2.424 4.76C2.18893 5.38187 2.06177 6.03932 2.048 6.704C2 7.552 2 7.824 2 10C2 12.176 2 12.448 2.048 13.296C2.06177 13.9607 2.18893 14.6181 2.424 15.24C2.619 15.776 2.934 16.26 3.344 16.656C3.742 17.064 4.225 17.379 4.76 17.576C5.38187 17.8111 6.03932 17.9382 6.704 17.952C7.552 18 7.824 18 10 18C12.176 18 12.448 18 13.296 17.952C13.9607 17.9382 14.6181 17.8111 15.24 17.576C15.7756 17.3807 16.2599 17.0661 16.656 16.656C17.066 16.258 17.383 15.775 17.584 15.24C17.812 14.617 17.936 13.96 17.952 13.296C17.952 12.448 18 12.176 18 10C18 7.824 18 7.552 17.952 6.704ZM16.512 13.2C16.5062 13.7078 16.4142 14.211 16.24 14.688C16.1123 15.0362 15.9071 15.3507 15.64 15.608C15.38 15.872 15.067 16.078 14.72 16.208C14.243 16.382 13.74 16.474 13.232 16.48C12.432 16.52 12.136 16.528 10.032 16.528C7.928 16.528 7.632 16.528 6.832 16.48C6.30471 16.4899 5.77967 16.4087 5.28 16.24C4.94863 16.1025 4.64908 15.8982 4.4 15.64C4.13447 15.383 3.93187 15.0682 3.808 14.72C3.61269 14.2361 3.50435 13.7216 3.488 13.2C3.488 12.4 3.44 12.104 3.44 10C3.44 7.896 3.44 7.6 3.488 6.8C3.492 6.28 3.586 5.766 3.768 5.28C3.90884 4.94233 4.12501 4.64133 4.4 4.4C4.643 4.125 4.943 3.906 5.28 3.76C5.76764 3.58403 6.2816 3.49206 6.8 3.488C7.6 3.488 7.896 3.44 10 3.44C12.104 3.44 12.4 3.44 13.2 3.488C13.7078 3.49382 14.211 3.5858 14.688 3.76C15.052 3.895 15.378 4.114 15.64 4.4C15.902 4.646 16.107 4.946 16.24 5.28C16.418 5.767 16.51 6.281 16.512 6.8C16.552 7.6 16.56 7.896 16.56 10C16.56 12.104 16.552 12.4 16.512 13.2ZM10 5.896C9.11985 5.89832 8.26377 6.18354 7.5581 6.70956C6.85243 7.23557 6.33456 7.97452 6.08093 8.81733C5.82729 9.66014 5.85133 10.5622 6.14949 11.3903C6.44766 12.2184 7.00415 12.9287 7.73683 13.4164C8.46951 13.9041 9.33957 14.1433 10.2186 14.0987C11.0976 14.0542 11.939 13.7282 12.6186 13.1689C13.2983 12.6096 13.7801 11.8467 13.993 10.9927C14.2059 10.1387 14.1386 9.23884 13.801 8.426C13.49 7.67471 12.9625 7.03295 12.2856 6.58241C11.6087 6.13186 10.8131 5.89292 10 5.896ZM10 12.664C9.2936 12.664 8.61612 12.3834 8.11662 11.8839C7.61712 11.3844 7.3365 10.7069 7.3365 10.0005C7.3365 9.2941 7.61712 8.61662 8.11662 8.11712C8.61612 7.61762 9.2936 7.337 10 7.337C10.7064 7.337 11.3839 7.61762 11.8834 8.11712C12.3829 8.61662 12.6635 9.2941 12.6635 10.0005C12.6635 10.7069 12.3829 11.3844 11.8834 11.8839C11.3839 12.3834 10.7064 12.664 10 12.664Z" fill="black" stroke="black"/>
</svg>
