<svg width="81" height="20" viewBox="0 0 81 20" fill="none" xmlns="http://www.w3.org/2000/svg">
<path d="M80.393 6.777C80.393 6.777 80.517 0 72.361 0C67.541 0 63.752 3.76 63.752 10C63.752 17.107 68.201 20 72.567 20C78.622 20 80.187 14.256 80.187 14.256H79.446C79.446 14.256 77.756 16.86 74.009 16.86C70.919 16.86 68.159 13.843 68.159 9.339C68.159 3.636 70.301 1.653 72.526 1.653C77.18 1.653 76.398 6.777 76.398 6.777H80.393ZM38.75 7.025C38.75 4.463 38.132 0.041 31.418 0.041C23.674 0.041 23.591 5.165 23.591 5.165L27.916 5.124C27.916 5.124 27.134 1.529 30.882 1.529C33.477 1.529 34.672 3.595 34.672 7.645V8.885C33.477 8.14 31.952 7.645 30.182 7.645C25.486 7.645 22.52 10.207 22.52 13.843C22.52 17.603 25.321 19.959 29.07 19.959C32.365 19.959 34.3 17.645 35.33 15.744H35.536C35.536 17.769 35.99 19.546 35.99 19.546H39.367C39.367 19.546 38.749 17.727 38.749 14.628L38.75 7.025ZM30.388 17.149C28.163 17.149 26.433 15.744 26.433 13.554C26.433 11.322 28.123 9.669 30.841 9.669C32.777 9.669 34.013 10.289 35.042 11.281L35.083 13.801C34.301 15.083 32.736 17.149 30.388 17.149ZM0.607002 0.496C1.142 10.041 0.607002 19.586 0.607002 19.586H4.85C4.85 19.586 4.314 10.041 4.85 0.496H0.607002ZM56.626 0.496C57.162 10.041 56.626 19.586 56.626 19.586H60.869C60.869 19.586 60.333 10.041 60.869 0.496H56.626ZM21.696 2.975L21.284 0.495H7.156L6.744 2.975C7.897 2.769 10.41 2.645 12.181 2.562C12.552 11.364 12.099 19.587 12.099 19.587H16.341C16.341 19.587 15.888 11.364 16.259 2.562C18.03 2.645 20.543 2.81 21.696 2.975ZM46.946 17.603C46.576 8.76 47.03 0.496 47.03 0.496H42.787C42.787 0.496 43.322 10.041 42.787 19.586H54.114L54.526 15.95H54.238C51.848 17.52 47.936 17.603 46.948 17.603H46.946Z" fill="#171722"/>
</svg>
