<svg width="16" height="16" viewBox="0 0 16 16" fill="none" xmlns="http://www.w3.org/2000/svg">
<g clip-path="url(#clip0_1_742)">
<path d="M15.532 3.66804C14.4808 2.61684 12.7536 2.61684 11.6648 3.66804C10.9144 4.41924 10.0504 7.23524 9.60079 8.81204C9.18719 7.27204 8.32399 4.41924 7.53519 3.66804C6.48399 2.61684 4.75679 2.61684 3.66879 3.66804C2.61759 4.71924 2.61759 6.44644 3.66879 7.53524C4.41919 8.28564 7.23519 9.14964 8.81199 9.60004C7.27279 10.0128 4.41999 10.876 3.66799 11.6648C2.61759 12.716 2.61759 14.4432 3.66799 15.532C4.71999 16.5832 6.44639 16.5832 7.53519 15.532C8.28639 14.7808 9.14959 11.9648 9.59999 10.388C10.0128 11.928 10.8768 14.7808 11.6648 15.532C12.716 16.5832 14.4432 16.5832 15.532 15.532C16.5832 14.4808 16.5832 12.7536 15.532 11.6648C14.7808 10.9136 11.9656 10.0504 10.388 9.60004C11.928 9.18724 14.7808 8.32324 15.532 7.53524C16.5832 6.44724 16.5832 4.71924 15.532 3.66804Z" fill="black" stroke="black"/>
</g>
<defs>
<clipPath id="clip0_1_742">
<rect width="16" height="16" fill="white"/>
</clipPath>
</defs>
</svg>
