<svg width="15" height="15" viewBox="0 0 15 15" fill="none" xmlns="http://www.w3.org/2000/svg">
<g clip-path="url(#clip0_1_2097)">
<path d="M3.78405 9.16467C3.84209 8.98967 3.91214 8.80317 4.0057 8.65167C4.25086 8.15017 4.69415 7.74167 5.23151 7.52017C4.86855 7.37438 4.54798 7.13995 4.29913 6.83833C4.05028 6.53671 3.8811 6.17753 3.80707 5.79367C3.76054 5.65367 3.74903 5.50217 3.702 5.35017C3.64396 5.10517 3.57392 4.86017 3.50387 4.62717C3.44533 4.45217 3.36378 4.26567 3.23519 4.12567C2.6398 3.47217 1.60111 3.42567 0.947684 4.02067C0.293753 4.61567 0.247222 5.64217 0.842614 6.30667C1.28591 6.79667 2.68683 7.04167 3.72551 7.49667C2.67482 7.95167 1.25088 8.22017 0.807591 8.69817C0.200191 9.37467 0.258729 10.4012 0.912661 10.9962C1.56609 11.6027 2.60478 11.5447 3.20017 10.8912C3.32875 10.7512 3.3988 10.5762 3.46885 10.3897C3.56191 10.1562 3.62045 9.89967 3.66698 9.66617C3.71401 9.51467 3.73702 9.33967 3.78405 9.16467ZM14.1844 8.74467C13.7406 8.25467 12.3052 7.99817 11.266 7.54367C12.3167 7.08867 13.7056 6.84367 14.1494 6.35367C14.7448 5.70017 14.6977 4.66217 14.0443 4.06717C13.8904 3.91836 13.7079 3.80234 13.5078 3.72615C13.3077 3.64995 13.0942 3.61517 12.8803 3.62392C12.6663 3.63266 12.4564 3.68474 12.2632 3.77701C12.07 3.86928 11.8975 3.9998 11.7563 4.16067C11.6277 4.30067 11.5577 4.47567 11.4876 4.66217C11.3946 4.89567 11.336 5.15217 11.2895 5.38517C11.2545 5.52517 11.231 5.67717 11.1844 5.82867C11.0328 6.61017 10.484 7.25167 9.76049 7.55517C10.293 7.77109 10.7287 8.17328 10.9863 8.68667C11.0794 8.86167 11.1614 9.02467 11.2074 9.19967C11.2545 9.37467 11.2895 9.54967 11.336 9.71317C11.3946 9.95817 11.4646 10.2032 11.5347 10.4362C11.5927 10.6112 11.6748 10.7977 11.8028 10.9377C12.3982 11.5912 13.4369 11.6377 14.0908 11.0427C14.7328 10.4362 14.7793 9.39767 14.1844 8.74467ZM10.8692 11.8247C10.7291 11.6962 10.554 11.6262 10.3674 11.5562C10.1337 11.4627 9.87707 11.4047 9.64342 11.3577C9.49182 11.3112 9.3167 11.2762 9.14159 11.2297C8.96647 11.1712 8.77985 11.1012 8.62825 11.0077C8.12592 10.7627 7.71765 10.3197 7.496 9.78267C7.35011 10.1454 7.11552 10.4658 6.8137 10.7144C6.51188 10.9631 6.15247 11.1322 5.76836 11.2062C5.62827 11.2527 5.47667 11.2647 5.32457 11.3112C5.07941 11.3697 4.83425 11.4397 4.60109 11.5097C4.42598 11.5677 4.23935 11.6497 4.09926 11.7777C3.44533 12.3727 3.3988 13.3992 3.99419 14.0642C4.58958 14.7172 5.62827 14.7642 6.2817 14.1692C6.77202 13.7257 7.01718 12.3262 7.47249 11.2877C7.93929 12.3377 8.19596 13.7607 8.67478 14.1927C9.32821 14.7877 10.3674 14.7407 10.9628 14.0877C11.5932 13.4577 11.5462 12.4192 10.8692 11.8247ZM4.62411 3.53067C4.85776 3.62417 5.11443 3.68217 5.34808 3.72917C5.48818 3.76417 5.63978 3.78717 5.79138 3.83417C6.57389 3.98567 7.21582 4.53417 7.51902 5.25717C7.73508 4.725 8.13753 4.28958 8.65126 4.03217C8.82638 3.93917 9.00149 3.85717 9.1651 3.81067C9.34022 3.76417 9.51533 3.72917 9.67844 3.68217C9.9236 3.62417 10.1688 3.55417 10.4024 3.48417C10.5775 3.42567 10.7642 3.34417 10.9042 3.21567C11.5577 2.62067 11.6047 1.59417 11.0093 0.929173C10.4019 0.252673 9.36323 0.206173 8.7098 0.824673C8.21948 1.26817 7.96281 2.70317 7.50751 3.72967C7.05221 2.67967 6.80705 1.29167 6.31672 0.848173C5.66379 0.252673 4.62411 0.299673 4.02922 0.952673C3.43382 1.60617 3.48035 2.64417 4.13428 3.23917C4.26237 3.39067 4.42598 3.47217 4.62461 3.53067H4.62411ZM9.32821 5.68867C9.00149 5.36217 8.46464 5.36217 8.12592 5.68867C7.89276 5.92217 7.62409 6.79667 7.48399 7.28667C7.35591 6.80867 7.08723 5.92167 6.84207 5.68867C6.51535 5.36217 5.9785 5.36217 5.63978 5.68867C5.31306 6.01517 5.31306 6.55167 5.63978 6.89017C5.87343 7.12367 6.74851 7.39167 7.23883 7.53167C6.76052 7.66017 5.87293 7.92817 5.63978 8.17317C5.31306 8.49967 5.31306 9.03667 5.63978 9.37467C5.96649 9.70167 6.50385 9.70167 6.84207 9.37467C7.07572 9.14167 7.3439 8.26667 7.48399 7.77667C7.61258 8.25517 7.88075 9.14167 8.12592 9.37467C8.45313 9.70167 8.98999 9.70167 9.32821 9.37467C9.65542 9.04817 9.65542 8.51167 9.32821 8.17317C9.09505 7.94017 8.21948 7.67167 7.72915 7.53167C8.20797 7.40317 9.09505 7.13517 9.32821 6.89017C9.65542 6.55167 9.65542 6.01517 9.32821 5.68867Z" fill="white"/>
</g>
<defs>
<clipPath id="clip0_1_2097">
<rect width="15" height="15" fill="white"/>
</clipPath>
</defs>
</svg>
