<svg width="70" height="15" viewBox="0 0 70 15" fill="none" xmlns="http://www.w3.org/2000/svg">
<g clip-path="url(#clip0_1_115)">
<path d="M34.751 4.275L34.8 4.112H32.56L32.51 4.272C33.094 4.314 33.268 4.624 33.268 4.88C33.2605 5.04577 33.215 5.20759 33.135 5.353L30.654 10.11L30.279 4.952C30.239 4.418 30.529 4.277 31.105 4.272L31.155 4.107H28.79L28.74 4.269C29.327 4.317 29.505 4.521 29.505 4.76C29.499 4.90089 29.4596 5.03833 29.39 5.161L26.97 10.088L26.594 4.968C26.564 4.382 26.858 4.296 27.4 4.275L27.448 4.112H25.033L24.982 4.275C25.663 4.315 25.872 4.511 25.92 5.138L26.399 11.042H26.692L29.605 5.131L30.081 11.042H30.361L33.332 5.372C33.729 4.618 34.171 4.308 34.751 4.275ZM19.768 4.275C20.145 4.302 20.384 4.38 20.48 4.521C20.576 4.663 20.576 4.872 20.48 5.208L19.071 9.894C18.907 10.424 18.509 10.714 17.917 10.751L17.855 10.924H23.739L24.759 8.91L24.637 8.86C23.8 10.188 22.572 10.741 20.422 10.741H19.543L20.537 7.437H21.517C21.912 7.437 22.175 7.524 22.322 7.706C22.491 7.913 22.512 8.268 22.399 8.806H22.549L23.365 6.096H23.211C22.921 6.848 22.322 7.277 21.528 7.277H20.586L21.492 4.275H22.408C23.562 4.275 24.287 4.782 24.544 5.748L24.666 5.73L24.448 4.113H19.818L19.768 4.275ZM24.406 12.649C24.112 12.649 23.922 12.779 23.922 12.981C23.922 13.158 24.085 13.265 24.242 13.265C24.3135 13.2625 24.3836 13.2441 24.447 13.211C24.5005 13.1836 24.559 13.1676 24.619 13.164C24.878 13.164 25.065 13.435 25.065 13.81C25.065 14.666 24.259 15.287 23.149 15.287C20.866 15.287 18.628 13.393 16.309 9.497C17.259 6.423 19.169 1.283 21.301 1.283C21.594 1.283 21.882 1.346 22.148 1.466C22.312 1.545 22.491 1.589 22.672 1.596C23.134 1.596 23.257 1.309 23.257 1.136C23.257 0.756 22.881 0.5 22.321 0.5C19.21 0.5 17.317 5.462 16.158 9.218C15.065 7.306 13.611 4.285 12.838 0.762H9.25001C8.32601 0.762 6.76701 0.962 6.76701 2.279C6.76701 2.5649 6.88059 2.8391 7.08275 3.04126C7.28492 3.24343 7.55911 3.357 7.84501 3.357C8.44801 3.357 8.76901 2.959 8.76901 2.672C8.76901 2.492 8.66901 2.3 8.44801 2.3C8.22701 2.3 8.12401 2.487 8.12401 2.672C8.12724 2.72216 8.11995 2.77244 8.10262 2.81962C8.08529 2.8668 8.0583 2.90984 8.02338 2.94599C7.98846 2.98214 7.94637 3.0106 7.89981 3.02954C7.85325 3.04848 7.80326 3.0575 7.75301 3.056C7.31301 3.056 7.00601 2.729 7.00601 2.259C7.00601 1.412 7.76001 0.983 9.24801 0.983H10.772C11.663 0.983 12.056 1.426 11.832 2.317C10.307 7.691 7.25701 13.435 3.26801 13.435C1.43301 13.435 0.472014 12.364 0.472014 11.305C0.472014 10.535 0.992014 9.967 1.45801 9.967C1.76601 9.967 1.88001 10.172 1.98901 10.369C2.09201 10.555 2.19901 10.747 2.46301 10.747C2.51391 10.7482 2.56453 10.7391 2.61179 10.7202C2.65906 10.7013 2.702 10.673 2.738 10.637C2.774 10.601 2.80231 10.558 2.82122 10.5108C2.84013 10.4635 2.84925 10.4129 2.84801 10.362C2.84801 9.935 2.36401 9.613 1.72301 9.613C0.985014 9.613 0.196014 10.293 0.196014 11.307C0.196014 12.693 1.48801 13.701 3.26901 13.701C5.40301 13.701 7.39701 12.201 9.19601 9.243C10.912 6.417 11.85 3.225 12.121 2.217C13.684 7.807 18.356 15.499 23.117 15.499C24.394 15.499 25.285 14.787 25.285 13.77C25.28 13.137 24.895 12.645 24.406 12.645V12.649ZM48.439 3.958C46.406 3.958 44.335 6.232 44.335 8.463C44.335 10.183 45.47 11.085 46.591 11.085C47.57 11.085 48.581 10.583 49.362 9.708C50.1682 8.80921 50.619 7.64732 50.63 6.44C50.633 4.956 49.75 3.958 48.439 3.958ZM46.579 10.886C45.662 10.886 45.115 10.076 45.115 8.726C45.115 6.774 46.74 4.153 48.402 4.153C49.58 4.153 49.827 5.207 49.827 6.087C49.827 7.761 48.711 10.887 46.578 10.887L46.579 10.886ZM48.063 0.979L48.123 0.766H44.603L44.543 0.978C45.466 1.026 45.728 1.427 45.728 1.776C45.728 1.982 45.645 2.217 45.48 2.484C45.48 2.484 40.938 9.604 40.578 10.162L38.691 2.138C38.6604 2.01187 38.6436 1.88277 38.641 1.753C38.641 1.203 39.065 1.012 39.882 0.983L39.942 0.769H36.332L36.272 0.982C37.041 1.012 37.494 1.218 37.734 2.202C38.164 3.972 39.833 11.011 39.882 11.216C38.136 13.769 36.663 15.248 34.31 15.248C32.594 15.248 31.3 14.061 31.3 12.488C31.3 10.916 32.555 9.64 34.097 9.64C35.055 9.64 35.572 10.13 35.572 10.589C35.5743 10.6833 35.552 10.7766 35.5072 10.8597C35.4625 10.9429 35.397 11.0129 35.317 11.063C35.189 11.145 35.07 11.248 35.07 11.443C35.0702 11.4872 35.0794 11.5308 35.0971 11.5713C35.1148 11.6117 35.1407 11.6481 35.173 11.6782C35.2053 11.7083 35.2435 11.7314 35.2851 11.7462C35.3267 11.7609 35.371 11.767 35.415 11.764C35.746 11.764 35.925 11.366 35.925 10.994C35.925 10.029 35.225 9.429 34.097 9.429C32.206 9.429 31.035 11.045 31.035 12.54C31.035 13.995 32.26 15.5 34.31 15.5C37.303 15.5 38.88 13.128 40.55 10.617C40.55 10.617 45.353 3.141 45.861 2.381C46.458 1.504 47.217 1.013 48.063 0.979ZM68.583 11.197C68.086 11.197 67.823 11.537 67.823 11.781C67.8222 11.8438 67.8456 11.9044 67.8885 11.9503C67.9314 11.9962 67.9903 12.0236 68.053 12.027C68.1151 12.0294 68.1764 12.0129 68.2289 11.9797C68.2814 11.9465 68.3226 11.8981 68.347 11.841C68.3902 11.7639 68.4532 11.6998 68.5295 11.6554C68.6059 11.6109 68.6927 11.5876 68.781 11.588C69.176 11.588 69.442 11.856 69.442 12.301C69.442 13.101 68.604 13.751 67.576 13.751C64.985 13.751 62.744 11.461 60.725 6.752L63.101 4.939C63.881 4.362 64.261 4.3 64.572 4.277L64.622 4.113H62.323L62.275 4.275C62.659 4.297 62.885 4.44 62.885 4.635C62.885 4.789 62.753 4.972 62.499 5.175L59.219 7.645L59.942 5.275L59.958 5.232C60.16 4.645 60.288 4.315 61.133 4.275L61.181 4.112H58.577L58.527 4.275C58.904 4.292 59.134 4.37 59.231 4.505C59.328 4.641 59.324 4.882 59.201 5.305L57.846 9.84C57.67 10.405 57.308 10.743 56.885 10.743C56.5 10.743 56.238 10.508 55.935 9.874L54.763 7.484C55.82 7.284 57.042 6.636 57.042 5.446C57.042 4.613 56.462 4.066 55.041 4.07L53.829 4.092C53.234 4.107 52.607 4.122 52.147 4.108L52.095 4.274C52.779 4.318 53.036 4.489 52.782 5.306L51.412 9.843C51.234 10.413 50.847 10.713 50.248 10.747L50.184 10.923H52.926L52.974 10.747C52.461 10.723 52.076 10.642 52.076 10.188C52.079 10.066 52.1 9.945 52.138 9.828L52.812 7.58H54.057L54.067 7.598C54.61 8.686 55.287 10.04 55.683 10.912L55.689 10.922H59.373L59.421 10.746C58.913 10.735 58.511 10.626 58.511 10.183C58.515 10.063 58.535 9.943 58.572 9.829L59.136 7.949L60.085 7.211C61.341 9.746 63.441 13.961 67.532 13.961C68.705 13.961 69.624 13.23 69.624 12.296C69.622 11.581 69.091 11.196 68.584 11.196L68.583 11.197ZM53.779 7.4H52.863L53.819 4.274C53.973 4.26 54.435 4.237 54.82 4.237C56.04 4.237 56.297 4.848 56.297 5.362C56.299 6.29 55.862 7.4 53.779 7.4Z" fill="#555555"/>
</g>
<defs>
<clipPath id="clip0_1_115">
<rect width="70" height="15" fill="white"/>
</clipPath>
</defs>
</svg>
