<svg width="20" height="20" viewBox="0 0 20 20" fill="none" xmlns="http://www.w3.org/2000/svg">
<path d="M11.218 2C6.83 2 4.5 4.81 4.5 7.875C4.5 9.295 5.294 11.068 6.565 11.63C6.928 11.793 6.88 11.594 7.192 10.4C7.20621 10.3519 7.2074 10.301 7.19545 10.2523C7.1835 10.2036 7.15884 10.159 7.124 10.123C5.307 8.02 6.77 3.699 10.958 3.699C17.021 3.699 15.888 12.088 12.013 12.088C11.014 12.088 10.27 11.304 10.506 10.334C10.791 9.178 11.35 7.936 11.35 7.104C11.35 5.004 8.223 5.316 8.223 8.097C8.223 8.957 8.527 9.537 8.527 9.537L7.334 14.359C7.018 15.645 7.377 17.726 7.408 17.905C7.428 18.004 7.538 18.035 7.6 17.954C7.7 17.824 8.916 16.089 9.256 14.834L9.889 12.524C10.224 13.13 11.191 13.637 12.221 13.637C15.285 13.637 17.5 10.943 17.5 7.601C17.49 4.397 14.747 2 11.218 2Z" fill="black" stroke="black"/>
</svg>
