<svg width="16" height="16" viewBox="0 0 16 16" fill="none" xmlns="http://www.w3.org/2000/svg">
<path d="M10.5713 10.572L14 14.0007M6.90929 2C6.25982 1.99243 5.6153 2.11382 5.01307 2.35712C4.41085 2.60043 3.86289 2.96082 3.40094 3.41741C2.939 3.87401 2.57225 4.41773 2.32194 5.01708C2.07164 5.61642 1.94275 6.25948 1.94275 6.909C1.94275 7.55852 2.07164 8.20158 2.32194 8.80093C2.57225 9.40028 2.939 9.944 3.40094 10.4006C3.86289 10.8572 4.41085 11.2176 5.01307 11.4609C5.6153 11.7042 6.25982 11.8256 6.90929 11.818C8.20133 11.8029 9.43534 11.2791 10.3437 10.3601C11.252 9.44116 11.7614 8.20113 11.7614 6.909C11.7614 5.61687 11.252 4.37684 10.3437 3.45786C9.43534 2.53888 8.20133 2.01506 6.90929 2Z" stroke="black"/>
</svg>
