<svg width="20" height="20" viewBox="0 0 20 20" fill="none" xmlns="http://www.w3.org/2000/svg">
<path d="M14.506 5.994C14.4124 5.94529 14.3213 5.89189 14.233 5.834C13.9763 5.66219 13.7413 5.46006 13.533 5.232C13.1231 4.76708 12.85 4.19769 12.744 3.587H12.747C12.687 3.23 12.712 3 12.716 3H10.338V12.297C10.338 12.422 10.338 12.545 10.333 12.667C10.333 12.683 10.331 12.697 10.33 12.713L10.329 12.733V12.739C10.304 13.072 10.198 13.395 10.021 13.677C9.84445 13.9589 9.60132 14.1931 9.31301 14.359C9.01301 14.532 8.67401 14.622 8.32901 14.622C7.22101 14.622 6.32301 13.708 6.32301 12.58C6.32301 11.452 7.22101 10.539 8.32901 10.539C8.53901 10.539 8.74701 10.572 8.94701 10.637L8.95001 8.19C8.34375 8.11035 7.72751 8.15883 7.14116 8.33229C6.5548 8.50575 6.01137 8.80034 5.54601 9.197C5.13601 9.557 4.79201 9.987 4.52801 10.467C4.42801 10.642 4.04801 11.345 4.00301 12.487C3.97401 13.134 4.16601 13.805 4.25801 14.082V14.088C4.31601 14.252 4.53901 14.808 4.90401 15.278C5.19701 15.656 5.54401 15.987 5.93401 16.261V16.255L5.93901 16.261C7.09101 17.052 8.36701 17.001 8.36701 17.001C8.58701 16.991 9.32801 17.001 10.168 16.597C10.7264 16.3305 11.2243 15.9524 11.631 15.486C11.971 15.088 12.24 14.636 12.429 14.146C12.6031 13.6532 12.6999 13.1364 12.716 12.614V7.681C12.745 7.698 13.129 7.955 13.129 7.955C13.129 7.955 13.682 8.314 14.546 8.548C15.166 8.714 16 8.748 16 8.748V6.363C15.707 6.395 15.114 6.301 14.506 5.994Z" fill="black" stroke="black"/>
</svg>
