<svg width="47" height="20" viewBox="0 0 47 20" fill="none" xmlns="http://www.w3.org/2000/svg">
<path d="M0.538513 1.94337H0.679513V1.80334L0.538513 1.94337Z" fill="#555555"/>
<path d="M0.604126 1.80334V3.37001H3.22144V18.2622H5.63019V3.37001H8.10552V1.80334H0.604126Z" fill="#555555"/>
<path d="M8.86928 5.95504V6.63654C8.86928 6.63654 10.1069 5.61918 11.3436 5.82383V7.99758H10.5877C10.5877 7.99758 8.93489 8.06416 9.00147 9.15593V18.1966H6.65833V5.95602H8.8683L8.86928 5.95504ZM17.672 5.88943H20.0905L21.5358 13.7737L22.8381 5.95504H24.3499L22.0077 18.2622H20.1473L17.672 5.88943Z" fill="#555555"/>
<path d="M28.4115 15.8828V13.1676H30.8202C30.8202 13.1676 31.444 18.1966 27.448 18.3376C23.3864 18.4766 23.8682 11.0585 23.8682 11.0585C23.8682 11.0585 23.594 6.23509 27.3824 5.82482C27.3824 5.82482 31.2354 5.55359 30.8956 12.2814H26.3523V16.0219C26.3523 16.0219 26.4943 17.4505 27.4578 17.4505C28.4115 17.376 28.4115 15.8828 28.4115 15.8828ZM28.3459 8.47445C28.2783 6.70999 27.3158 6.70999 27.3158 6.70999C26.2867 6.70999 26.2867 8.47249 26.2867 8.47249V11.2631H28.2793C28.3459 11.1887 28.4115 10.2369 28.3459 8.47249V8.47445ZM38.4607 15.8828V13.1676H40.8694C40.8694 13.1676 41.4932 18.1966 37.4982 18.3376C33.4366 18.4766 33.9183 11.0585 33.9183 11.0585C33.9183 11.0585 33.6442 6.23509 37.4316 5.82482C37.4316 5.82482 41.2856 5.55359 40.9458 12.2814H36.4025V16.0219C36.4025 16.0219 36.5445 17.4505 37.508 17.4505C38.3951 17.376 38.4607 15.8828 38.4607 15.8828ZM38.3951 8.47445C38.3295 6.71097 37.366 6.71097 37.366 6.71097C36.3359 6.71097 36.3359 8.47347 36.3359 8.47347V11.2641H38.3295C38.3951 11.1897 38.3951 10.2379 38.3951 8.47347V8.47445ZM31.2354 18.2622H33.5032V1.60657H31.2354V18.2622ZM43.4868 5.81503V6.49653C43.4868 6.49653 44.7234 5.47917 45.9611 5.68382V7.85855H45.2052C45.2052 7.85855 43.6189 7.92415 43.6189 9.01592V18.2622H41.2768V5.81503H43.4868ZM11.4856 9.63084C11.4856 9.63084 11.0039 5.89042 14.7159 5.82482C14.7159 5.82482 17.8796 5.61919 17.8796 9.63084V18.2622H15.745V17.5807C15.745 17.5807 14.9235 18.3934 13.6104 18.3934C12.3081 18.3934 11.6834 17.5063 11.5424 17.1704C11.1263 16.4889 10.9941 13.9049 11.6834 12.8229C11.6834 12.8229 12.1652 12.0758 13.2706 11.3297C13.819 10.9938 14.1676 10.7128 14.4417 10.5826C14.5837 10.518 14.7159 10.377 14.7815 10.3123C14.7815 10.3123 15.5374 9.77086 15.604 9.56622V7.92415C15.604 7.92415 15.5374 6.76678 14.7061 6.76678C13.8748 6.76678 13.7426 7.98878 13.7426 7.98878V9.62203H11.4856V9.63084ZM14.6493 16.769C15.4718 16.769 15.6128 15.6772 15.6128 15.6772V10.984C15.4718 11.1241 15.1311 11.3199 14.7159 11.5255C14.2997 11.7958 13.8934 12.0014 13.7524 12.1414C13.5448 12.4117 13.4782 12.7573 13.4782 12.7573V15.7526C13.5448 15.8172 13.7524 16.769 14.6493 16.769ZM10.7963 2.82955C10.6543 2.35367 10.3801 2.21267 10.1726 2.21267C9.54883 2.21267 9.41664 3.0998 9.41664 3.50126C9.41664 4.11715 9.62423 4.72326 10.106 4.72326C10.1726 4.72326 10.6543 4.72326 10.8619 4.10736L11.4856 4.31299C11.419 4.51861 11.419 4.64884 11.2115 4.92888C11.0039 5.19913 10.7297 5.47036 10.1824 5.47036C9.55862 5.47036 8.7371 5.05911 8.7371 3.70688C8.72731 2.4183 9.41664 1.80338 10.1726 1.80338C11.0695 1.80338 11.3436 2.61511 11.3436 2.75513L10.7953 2.82955H10.7963ZM12.6567 5.33915C13.205 5.33915 13.7622 4.9279 13.7622 3.97713C13.7622 3.36026 13.5536 2.68953 12.6567 2.68953C12.1084 2.68953 11.6266 3.1654 11.6266 4.05155C11.5512 5.0033 12.175 5.33915 12.6567 5.33915ZM12.6567 4.86328C12.175 4.86328 12.175 4.18276 12.175 3.97713C12.175 3.56588 12.2415 3.09099 12.6567 3.09099C13.0719 3.09099 13.1385 3.70688 13.1385 3.90272C13.0631 4.11715 13.0631 4.86328 12.6567 4.86328ZM15.887 5.27453H15.2632V3.43467C15.2632 3.29465 15.2632 3.16442 15.0557 3.16442C14.8481 3.16442 14.7159 3.30444 14.5073 3.50028V5.26278H13.8846V2.68757H14.5083V3.0244C14.6493 2.88438 14.9235 2.61315 15.3298 2.61315C15.6696 2.61315 15.8782 3.29465 15.8782 3.29465V5.27257H15.887V5.27453ZM18.2291 5.27453V1.60559H17.6064V2.96957C17.3322 2.63372 17.0581 2.63372 16.9827 2.63372C16.4343 2.63372 16.0857 3.24961 16.0857 3.92132C16.0857 4.66745 16.4255 5.20892 16.9827 5.20892C17.3224 5.20892 17.531 4.9377 17.6064 4.87307V5.14332H18.2291V5.27453ZM17.1912 3.23982C17.3978 3.23982 17.531 3.37984 17.6064 3.51007V4.60184C17.5398 4.66744 17.3978 4.87307 17.1902 4.87307C16.7751 4.87307 16.7085 4.33159 16.7085 4.12597C16.7085 3.84592 16.7095 3.23982 17.1912 3.23982ZM19.4668 2.4183L20.2893 1.67217H19.599L18.9753 2.4183H19.4668ZM19.0516 4.11715C19.0516 4.73305 19.3914 4.79767 19.5324 4.79767C19.8066 4.79767 19.9486 4.59205 20.0142 4.46182L20.4959 4.66744C20.4303 4.80747 20.1561 5.34894 19.5334 5.34894C18.9097 5.34894 18.4269 4.87307 18.4269 3.98594C18.4269 3.23982 18.9097 2.69834 19.5334 2.69834C20.0807 2.69834 20.3549 3.0342 20.4959 3.37984C20.5625 3.65009 20.5625 3.85572 20.5625 4.12597H19.0516V4.11617V4.11715ZM20.0142 3.71569C20.0142 3.23982 19.6744 3.0998 19.5324 3.0998C19.3248 3.0998 19.0516 3.23982 19.0516 3.71667L20.0142 3.71569ZM22.5649 1.67217L23.9436 4.05155V1.67217H24.5673V5.27355H23.9436L22.5649 2.75513V5.27355H21.9412V1.67217H22.5649ZM26.8341 5.20892C26.7685 5.0689 26.7685 4.87307 26.7685 4.73305V3.57567C26.7685 2.89417 26.2201 2.76394 25.8706 2.76394C25.5308 2.76394 25.1812 2.90397 24.9071 3.23982L25.2478 3.57567C25.3888 3.37005 25.5876 3.23982 25.7961 3.23982C26.0027 3.23982 26.2113 3.37984 26.2113 3.65107V3.71569C25.521 3.7813 24.8317 4.05155 24.8317 4.66744C24.8317 5.07869 25.1724 5.34894 25.5876 5.34894C25.9274 5.34894 26.1359 5.14332 26.2769 5.07772C26.2769 5.14332 26.2769 5.21774 26.3435 5.34894H26.8252L26.8341 5.20892ZM25.3898 4.52644C25.3898 4.11519 26.0135 3.98497 26.2123 3.98497V4.60184C26.1457 4.66647 25.8715 4.87209 25.664 4.87209C25.522 4.79669 25.3898 4.73207 25.3898 4.52644ZM28.4879 3.30444C28.2137 3.09882 28.0727 3.09882 27.9395 3.09882C27.7329 3.09882 27.5998 3.23884 27.5998 3.36907C27.5998 3.57469 27.8083 3.6403 28.0815 3.7059C28.4223 3.77053 28.9794 3.91153 28.9794 4.45203C28.9794 4.78788 28.7052 5.26376 27.9493 5.26376C27.402 5.26376 27.1278 4.99351 26.9868 4.78788L27.3266 4.51763C27.4067 4.60246 27.5032 4.67014 27.6103 4.71659C27.7173 4.76304 27.8326 4.7873 27.9493 4.78788C28.1579 4.78788 28.3655 4.72228 28.3655 4.51763C28.3655 4.31201 28.1579 4.2464 27.8837 4.18178C27.6096 4.11617 26.9868 3.97615 26.9868 3.36907C26.9868 2.9588 27.402 2.55734 27.8837 2.55734C28.2989 2.55734 28.6396 2.76297 28.7806 2.8932L28.4879 3.30444ZM29.9331 1.87682V2.68855H30.3493V3.16442H29.9331V4.52644C29.9331 4.73207 30.1407 4.73207 30.3493 4.79669V5.33817C30.0085 5.33817 29.8009 5.33817 29.5934 5.19815C29.3858 5.05813 29.3192 4.7869 29.3192 4.51763V3.1654H28.9696V2.68953H29.3104V1.87682H29.9331Z" fill="#555555"/>
</svg>
