<svg width="20" height="20" viewBox="0 0 20 20" fill="none" xmlns="http://www.w3.org/2000/svg">
<path fill-rule="evenodd" clip-rule="evenodd" d="M16.465 7.235C16.471 7.378 16.473 7.521 16.473 7.665C16.473 11.997 13.378 17 7.718 17C6.03238 16.9966 4.38739 16.4823 3 15.525C3.24 15.551 3.485 15.571 3.734 15.571C5.175 15.571 6.503 15.044 7.556 14.161C6.21 14.141 5.073 13.186 4.681 11.887C5.14236 11.9827 5.62021 11.9627 6.072 11.829C4.663 11.529 3.602 10.204 3.602 8.613V8.573C4.017 8.814 4.492 8.963 4.997 8.983C4.17 8.392 3.627 7.385 3.627 6.248C3.627 5.65 3.778 5.085 4.044 4.598C5.562 6.586 7.83 7.892 10.387 8.028C10.3341 7.78253 10.3076 7.5321 10.308 7.281C10.308 5.468 11.686 4 13.386 4C14.271 4 15.07 4.396 15.631 5.033C16.3258 4.88996 16.9887 4.62122 17.587 4.24C17.3676 4.98737 16.8866 5.63088 16.232 6.053C16.8448 5.97658 17.4415 5.80343 18 5.54C17.5924 6.19114 17.0727 6.765 16.465 7.235Z" fill="black" stroke="black"/>
</svg>
