<svg width="59" height="15" viewBox="0 0 59 15" fill="none" xmlns="http://www.w3.org/2000/svg">
<path d="M17.9294 0.529687C14.7259 0.553125 12.1047 4.11375 12.1047 7.21969C12.1047 10.4888 14.0266 14.4759 17.9294 14.4628C21.8331 14.4506 23.86 10.1578 23.86 7.21969C23.86 3.97594 21.1337 0.507187 17.9294 0.529687ZM17.9294 0.651562C20.6106 0.651562 21.3353 3.61406 21.3353 7.21969C21.3353 11.9794 20.4625 14.3259 17.9294 14.3222C15.3972 14.3175 14.5731 12.3966 14.5731 7.21969C14.5731 3.97781 15.2481 0.651562 17.9294 0.651562ZM24.9175 7.30781C24.9034 3.77344 27.7319 0.642187 30.1262 0.4875C30.9916 0.426562 32.1034 0.822187 32.7522 1.10438C33.2237 1.30969 34.1866 1.0125 34.3572 0.46875H34.45V5.28281H34.3562C34.3562 5.0775 33.4656 0.608437 30.1262 0.608437C27.6606 0.608437 27.4225 4.94438 27.4225 7.30781C27.4225 9.67125 27.4947 14.3494 30.3719 14.3494C31.7659 14.3494 32.7981 13.74 33.0653 12.5063V8.75438H31.8953V8.595H36.4309V8.75438H35.3125V14.2387H35.2206C35.2206 14.2387 35.0387 13.4475 34.1162 13.4513C32.9369 13.4541 31.8241 14.4788 30.4684 14.4656C26.8825 14.4328 24.9325 10.8422 24.9184 7.30781H24.9175ZM3.30812 1.00406H1.89531V0.844688H6.8425V1.00406H5.60312L9.1375 10.6041C10.2437 7.20094 11.0987 4.68469 12.2519 1.00406H11.0237V0.844688H13.6366V1.00406H12.4459L8.15031 14.3972L3.30812 1.00406ZM37.1237 11.1187L37.1012 0.989062H35.7569V0.837187H40.7087V0.989062H39.3653L39.3953 12.0956C39.6934 13.3669 40.2222 14.3325 42.0287 14.3456C43.8344 14.3606 45.0625 13.2769 45.5191 11.7975V0.988125H43.9816V0.842812H56.5675L56.5938 5.70469H56.4728C56.2394 2.565 55.0281 1.37906 52.9094 1.03312C52.18 0.913125 51.4159 1.00219 50.4484 0.994687V7.20094C51.2903 7.26562 52.1875 7.21219 52.7922 6.69281C53.3416 6.22125 53.4972 5.13 53.5375 4.68656H53.6434V10.0903H53.5281C53.4953 10.0903 53.4512 8.73469 52.7922 8.09156C52.1284 7.44469 51.2828 7.28531 50.4484 7.43906V14.0681C51.6278 14.0681 52.5672 14.1684 53.3847 13.9444C55.8662 13.2638 56.74 11.1703 56.7325 9.07031H56.8712V14.2256H46.9994V14.0681H48.115V0.989062H45.7028V11.7984C45.43 12.8316 44.4306 14.5425 41.8703 14.5312C39.4891 14.52 37.1284 13.4475 37.1237 11.1187Z" fill="#555555"/>
</svg>
