<svg width="115" height="15" viewBox="0 0 115 15" fill="none" xmlns="http://www.w3.org/2000/svg">
<path d="M113.799 11.0147C113.466 11.0147 113.189 11.2925 113.189 11.6665C113.189 12.0406 113.466 12.3178 113.799 12.3178C114.132 12.3178 114.409 12.04 114.409 11.6665C114.409 11.2918 114.132 11.0147 113.799 11.0147ZM91.7273 12.2764H94.5281V12.027L94.2231 11.9573C93.9459 11.8881 93.8206 11.7357 93.8206 11.3474V7.57628H94.4725C94.8743 7.57628 95.0824 7.67319 95.1102 8.51954L95.1793 10.2936C95.2348 11.8881 95.6923 12.332 96.4695 12.332C97.259 12.332 97.467 11.7912 97.467 11.0282V10.7097H97.1756V10.9449C97.1756 11.4585 97.1065 11.819 96.9127 11.819C96.7324 11.819 96.7182 11.6801 96.6769 11.0424L96.5935 9.82266C96.483 8.18617 96.275 7.61763 95.0688 7.39603C96.2195 7.09109 96.9262 6.24538 96.9262 5.03918C96.9262 3.47246 95.6923 2.72367 94.5138 2.72367H89.7866V2.97305L90.0502 3.02861C90.5489 3.13974 90.5631 3.40333 90.5631 4.5262V10.0436C90.5631 11.2776 90.2162 11.8739 89.4254 11.8739C88.7193 11.8739 88.331 11.5276 88.331 10.1825V3.62493C88.331 3.23729 88.455 3.12617 88.76 3.05639L89.1347 2.97305V2.72367H86.2371V2.97305L86.542 3.05704C86.8192 3.13974 86.9161 3.25086 86.9161 3.6385V10.0863C86.9161 11.5412 87.7624 12.3456 89.052 12.3456C90.3409 12.3456 90.9786 11.5412 90.9786 10.0443V4.02679C90.9786 3.27864 91.131 3.01505 91.7409 3.01505C92.2261 3.01505 92.4348 3.18109 92.4348 3.6385V11.3474C92.4348 11.735 92.3101 11.8739 92.0323 11.9437L91.7273 12.027V12.2764ZM110.333 3.6385C110.333 3.25086 110.458 3.12617 110.735 3.06996L111.109 2.98727V2.72367H108.226V2.97305L108.531 3.05704C108.808 3.13974 108.933 3.25086 108.933 3.6385V11.4029C108.933 11.7777 108.78 11.985 108.35 11.985C107.851 11.985 107.782 11.819 107.602 11.0011L105.827 2.69589H105.273L103.581 10.7375C103.387 11.6381 103.29 11.8468 102.916 11.9573L102.68 12.027V12.2764H104.662V12.027L104.372 11.9715C103.955 11.8875 103.845 11.6665 104.053 10.6128L105.051 5.46881L106.146 10.9177C106.312 11.7079 106.299 11.8604 105.702 11.9708L105.411 12.027V12.2764H112.759V9.11522H112.496C112.358 10.5708 112.066 11.9437 110.888 11.9437H110.333V3.6385ZM106.007 9.69732V9.32325H104.136L104.081 9.69797H106.007V9.69732ZM98.2714 3.80519V10.4325C98.2714 11.4307 98.2714 11.9017 97.772 11.985L97.5226 12.027V12.2764H99.5603V12.027C98.6732 11.9017 98.6732 11.5968 98.6732 10.5152V4.22125L98.3405 3.91631L101.738 12.2764H102.32V4.5669C102.32 3.42982 102.32 3.18044 102.874 3.02797L103.068 2.97241V2.72367H100.975V2.97305L101.21 3.02861C101.917 3.15331 101.917 3.43111 101.917 4.48485V9.30904L102.056 9.26769L99.4776 2.72367H97.4948V2.97305L97.6886 3.02861C97.9109 3.09839 98.0355 3.34777 98.2714 3.80519ZM93.8206 3.05639H94.3756C94.9299 3.05639 95.4429 3.4169 95.4429 5.21943C95.4429 7.06331 95.0546 7.24356 94.2787 7.24356H93.8206V3.05704V3.05639ZM84.5877 7.41024C84.5877 11.4165 84.2549 11.985 83.5339 11.985C82.8129 11.985 82.4938 11.4165 82.4938 7.43738C82.4938 3.58359 82.8407 3.02861 83.5339 3.02861C84.2549 3.02861 84.5877 3.58359 84.5877 7.41024ZM86.0988 7.49294C86.0988 4.84536 85.2531 2.65454 83.5339 2.65454C81.8005 2.65454 80.9826 4.84471 80.9826 7.49359C80.9826 10.1554 81.8283 12.3456 83.5339 12.3456C85.2945 12.3456 86.0988 10.1547 86.0988 7.49294ZM80.1647 3.6385C80.1647 3.25086 80.2616 3.12617 80.5388 3.05704L80.8437 2.97305V2.72367H77.9745V2.97305L78.3208 3.05704C78.598 3.12617 78.7504 3.22308 78.7504 3.62558V10.2936C78.7504 11.2227 78.6671 11.9715 77.9745 11.9715C77.5307 11.9715 77.1979 11.6245 77.2115 11.3752C77.2529 10.9449 77.9745 10.9733 78.0294 10.2794C78.0714 9.78066 77.7523 9.57263 77.4609 9.53128C77.0313 9.47572 76.5047 9.83623 76.4905 10.5572C76.4763 11.4856 77.0868 12.332 78.1263 12.332C79.2776 12.332 80.1647 11.5554 80.1647 10.0714V3.6385ZM33.8584 3.6385C33.8584 3.25086 33.9831 3.12617 34.2603 3.06996L34.635 2.98727V2.72367H31.751V2.97305L32.0559 3.05704C32.3337 3.13974 32.4584 3.25086 32.4584 3.6385V11.4029C32.4584 11.7777 32.3053 11.985 31.8757 11.985C31.3769 11.985 31.2936 11.819 31.1133 11.0011L29.3379 2.69589H28.7836L27.0922 10.7375C26.8984 11.6381 26.8008 11.8468 26.4267 11.9573L26.1909 12.027V12.2764H28.1737V12.027L27.8823 11.9715C27.4663 11.8875 27.3551 11.6665 27.5632 10.6128L28.5613 5.44103L29.6571 10.9177C29.8095 11.7079 29.8095 11.8604 29.2132 11.9708L28.9225 12.027V12.2764H36.2838V9.11522H36.0208C35.8819 10.5708 35.5905 11.9437 34.4121 11.9437H33.8578V3.6385H33.8584ZM72.4558 3.05704H72.7614C73.6213 3.05704 73.912 4.42929 74.0089 5.88488H74.2725V2.72367H69.2397V5.88488H69.5033C69.6002 4.42929 69.8916 3.05639 70.7508 3.05639H71.0558V11.3474C71.0558 11.735 70.9311 11.8739 70.6539 11.9437L70.2934 12.027V12.2764H73.2879V12.027L72.8583 11.9301C72.5947 11.8604 72.4558 11.777 72.4558 11.3474V3.05639V3.05704ZM66.1205 7.47937L66.5501 7.49294C67.1742 7.50715 67.3538 7.74297 67.4791 9.25412H67.7421V5.39968H67.4791C67.3267 6.60589 67.16 7.11822 66.5637 7.13243L66.1205 7.14665V3.05704H67.0766C68.1446 3.05704 68.3804 4.40086 68.5329 5.88488H68.7958V2.72367H64.013V2.97305L64.3179 3.05704C64.6365 3.13974 64.7198 3.3342 64.7198 3.65272V11.3474C64.7198 11.735 64.5957 11.8739 64.3179 11.9437L64.013 12.027V12.2764H68.9347V9.11522H68.6711C68.5051 10.5572 68.3248 11.9437 67.0766 11.9437H66.1205V7.47937ZM60.8938 7.47937L61.3234 7.49294C61.9469 7.50715 62.1271 7.74297 62.2525 9.25412H62.5154V5.39968H62.2525C62.1 6.60589 61.9333 7.11822 61.3376 7.13243L60.8931 7.14665V3.05704H61.85C62.9179 3.05704 63.1531 4.42929 63.3055 5.88488H63.5691V2.72367H58.6474V2.97305L59.0913 3.05704C59.4098 3.13974 59.4931 3.3342 59.4931 3.65272V11.3474C59.4931 11.735 59.3684 11.8739 59.0913 11.9437L58.7863 12.027V12.2764H63.708V9.11522H63.4438C63.2778 10.5572 63.0969 11.9437 61.8493 11.9437H60.8931L60.8938 7.47937ZM55.1955 3.05639H55.6115C56.1659 3.05639 56.6788 3.4169 56.6788 5.21943C56.6788 7.03552 56.2912 7.24356 55.514 7.24356H55.1955V3.05704V3.05639ZM53.1022 12.2758H55.9023V12.027L55.5973 11.9573C55.3195 11.8881 55.1955 11.7357 55.1955 11.3474V7.57628H55.7084C56.1103 7.57628 56.3183 7.74297 56.3461 8.51954L56.4152 10.2936C56.4708 11.8881 56.9282 12.332 57.7048 12.332C58.4949 12.332 58.703 11.7912 58.703 11.0282V10.7097H58.4122V10.9449C58.4122 11.4585 58.3425 11.819 58.1486 11.819C57.9677 11.819 57.9542 11.6801 57.9128 11.0424L57.8288 9.82266C57.719 8.14482 57.4968 7.61763 56.3041 7.39603C57.4554 7.09109 58.1622 6.24538 58.1622 5.03918C58.1622 3.47246 56.9282 2.72367 55.7498 2.72367H53.1016V2.97305L53.4065 3.05704C53.6843 3.13974 53.809 3.25086 53.809 3.6385V11.3474C53.809 11.735 53.6843 11.8739 53.4065 11.9437L53.1016 12.027V12.2764L53.1022 12.2758ZM50.9799 3.05704H51.2848C52.1441 3.05704 52.4355 4.42993 52.533 5.88552H52.796V2.72367H47.7631V5.88488H48.0267C48.1236 4.42929 48.415 3.05639 49.2749 3.05639H49.5798V11.3474C49.5798 11.735 49.4545 11.8739 49.178 11.9437L48.8168 12.027V12.2764H51.7422V12.027L51.3817 11.9431C51.0219 11.8604 50.9799 11.5832 50.9799 11.3474V3.05639V3.05704ZM47.7773 9.79552C47.7773 6.95283 44.6581 6.20404 44.6581 4.13856C44.6581 3.69471 44.8241 3.02926 45.5174 3.02926C46.5156 3.02926 46.8903 4.31881 47.0563 5.88552H47.3199V2.72367H47.1532C47.0841 3.02861 46.9594 3.16752 46.7791 3.16752C46.46 3.16752 46.2939 2.66811 45.5316 2.66811C44.3532 2.66811 43.5482 3.65272 43.5482 4.94227C43.5482 7.28491 46.6687 8.26951 46.6687 10.4325C46.6687 11.4165 46.2106 11.9715 45.5865 11.9715C44.6581 11.9715 44.0476 10.8764 43.8815 9.11522H43.6179V12.2764H43.7846C43.9229 11.819 44.1031 11.777 44.2563 11.777C44.5192 11.777 44.7964 12.332 45.6001 12.332C46.8341 12.332 47.7773 11.264 47.7773 9.79423V9.79552ZM38.6968 3.63786C38.6968 3.25022 38.8215 3.12552 39.0987 3.06932L39.4734 2.98662V2.72367H36.5894V2.97305L36.8943 3.05704C37.1721 3.13974 37.2968 3.25086 37.2968 3.6385V11.3474C37.2968 11.735 37.1721 11.8739 36.8943 11.9437L36.5894 12.027V12.2764H41.1235V9.11522H40.8599C40.721 10.5708 40.4302 11.9437 39.2512 11.9437H38.6968V3.6385V3.63786ZM29.5188 9.69732V9.32325H27.6472L27.5916 9.69797H29.5188V9.69732ZM21.5056 12.3042H22.0742L23.3631 5.48302H23.1693L24.5829 12.3042H25.0823L26.7737 4.2626C26.9546 3.4169 27.0515 3.12552 27.3836 3.04283L27.6472 2.97305V2.72367H25.6922V2.97305L25.9835 3.02861C26.3996 3.11196 26.4965 3.36134 26.3027 4.38729L25.207 9.78066H25.3736L24.2643 4.09656C24.1532 3.55581 24.0841 3.11196 24.5422 3.02861L24.8464 2.97305V2.72367H22.1711V2.97305L22.3513 3.01505C22.6285 3.08418 22.6698 3.25086 22.781 3.77741L23.2106 5.84353L23.1273 4.59533L22.1711 9.64176H22.2958L21.1729 4.09656C21.0476 3.52802 21.0062 3.09839 21.4501 3.01505L21.6581 2.97305V2.72367H18.9265V2.97305L19.1901 3.04283C19.4395 3.11196 19.5778 3.23665 19.7445 3.99901L21.5056 12.3042ZM14.1017 7.47937L14.532 7.49294C15.1554 7.50715 15.3357 7.74297 15.4604 9.25412H15.724V5.39968H15.4604C15.3079 6.60589 15.1419 7.11822 14.5456 7.13243L14.1017 7.14665V3.05704H15.0585C16.1258 3.05704 16.3616 4.42929 16.5141 5.88488H16.7777V2.72367H11.9949V2.97305L12.2998 3.05704C12.6183 3.13974 12.7017 3.3342 12.7017 3.65272V11.3474C12.7017 11.735 12.577 11.8739 12.2998 11.9437L11.9949 12.027V12.2764H16.9166V9.11522H16.653C16.4863 10.5572 16.3061 11.9437 15.0585 11.9437H14.1023L14.1017 7.47937ZM5.38173 12.2764H8.22443V12.027L7.90527 11.9573C7.65589 11.9017 7.4892 11.7357 7.4892 11.3474V7.56272H9.58246V11.3474C9.58246 11.735 9.41642 11.9017 9.16704 11.9573L8.84788 12.027V12.2764H11.6906V12.027L11.385 11.9431C11.1078 11.8739 10.9831 11.7215 10.9831 11.3332V3.63915C10.9831 3.25151 11.1078 3.12682 11.385 3.05769L11.6899 2.9737V2.72367H8.84788V2.97305L9.16704 3.05704C9.40221 3.12617 9.58246 3.22308 9.58246 3.62558V7.188H7.4892V3.62493C7.4892 3.23729 7.64167 3.12617 7.90527 3.05639L8.22443 2.97305V2.72367H5.38173V2.97305L5.68667 3.05704C5.96448 3.13974 6.08917 3.25086 6.08917 3.6385V11.3474C6.08917 11.735 5.96448 11.8739 5.68667 11.9437L5.38173 12.027V12.2764ZM3.26004 3.05704H3.56499C4.42426 3.05639 4.71628 4.42864 4.81319 5.88488H5.07614V2.72367H0.0432739V5.88488H0.306869C0.40378 4.42929 0.695156 3.05639 1.55507 3.05639H1.86002V11.3474C1.86002 11.735 1.73532 11.8739 1.45752 11.9437L1.09701 12.027V12.2764H4.09218V12.027L3.66254 11.9301C3.39895 11.8604 3.26004 11.777 3.26004 11.3474V3.05639V3.05704Z" fill="#555555"/>
</svg>
