<svg width="20" height="20" viewBox="0 0 20 20" fill="none" xmlns="http://www.w3.org/2000/svg">
<path fill-rule="evenodd" clip-rule="evenodd" d="M15.869 4.90501C16.1855 4.9909 16.4741 5.15811 16.706 5.39002C16.9379 5.62194 17.1051 5.91048 17.191 6.22701C17.512 7.40001 17.5 9.84701 17.5 9.84701C17.5 9.84701 17.5 12.281 17.191 13.455C17.1051 13.7715 16.9379 14.0601 16.706 14.292C16.4741 14.5239 16.1855 14.6911 15.869 14.777C14.695 15.086 10 15.086 10 15.086C10 15.086 5.317 15.086 4.131 14.764C3.81448 14.6781 3.52593 14.5109 3.29402 14.279C3.0621 14.0471 2.8949 13.7585 2.809 13.442C2.5 12.281 2.5 9.83501 2.5 9.83501C2.5 9.83501 2.5 7.40001 2.809 6.22701C2.89625 5.90989 3.06358 5.62055 3.29492 5.38676C3.52626 5.15297 3.81382 4.9826 4.13 4.89201C5.305 4.58301 10 4.58301 10 4.58301C10 4.58301 14.695 4.58301 15.869 4.90501ZM12.409 9.74901L8.505 11.997V7.50001L12.409 9.74901Z" fill="black" stroke="black"/>
</svg>
